<svg width="18" height="15" viewBox="0 0 18 15" fill="none" xmlns="http://www.w3.org/2000/svg">
<path d="M6.19824 2.68164H13.7075V2.63086C13.6504 1.28516 12.8696 0.555176 11.4731 0.555176H2.85938C1.41211 0.555176 0.618652 1.34229 0.618652 2.7832V8.896C0.618652 10.3052 1.37402 11.0859 2.77686 11.1177H2.92285V5.94434C2.92285 3.93213 4.17969 2.68164 6.19824 2.68164ZM6.19824 14.2788H14.8501C16.2974 14.2788 17.0908 13.4917 17.0908 12.0508V5.94434C17.0908 4.50342 16.2974 3.71631 14.8501 3.71631H6.19824C4.74463 3.71631 3.95752 4.50342 3.95752 5.94434V12.0508C3.95752 13.4917 4.74463 14.2788 6.19824 14.2788ZM8.65479 11.2383V6.76953C8.65479 6.45215 8.99121 6.2998 9.26416 6.46484L13.0347 8.67383C13.2949 8.81982 13.3013 9.18164 13.041 9.33398L9.26416 11.5303C8.99121 11.689 8.65479 11.543 8.65479 11.2383Z" fill="white"/>
</svg>
