<svg width="8" height="13" viewBox="0 0 8 13" fill="none" xmlns="http://www.w3.org/2000/svg">
<path d="M7.40088 6.41699C7.40088 6.09961 7.28662 5.83936 7.02637 5.5918L2.22754 0.888184C2.03711 0.697754 1.80225 0.602539 1.52295 0.602539C0.964355 0.602539 0.507324 1.05957 0.507324 1.61182C0.507324 1.89111 0.621582 2.15137 0.831055 2.35449L5.01416 6.41064L0.831055 10.4731C0.621582 10.6826 0.507324 10.9365 0.507324 11.2222C0.507324 11.7808 0.964355 12.2314 1.52295 12.2314C1.80225 12.2314 2.03711 12.1362 2.22754 11.9458L7.02637 7.24219C7.29297 6.98828 7.40088 6.72803 7.40088 6.41699Z" fill="white"/>
</svg>
